<svg width="526" height="713" viewBox="0 0 526 713" fill="none" xmlns="http://www.w3.org/2000/svg">
<g opacity="0.05" clip-path="url(#clip0_10046_970)">
<path d="M-146.807 -30.2748L-144.837 -30.735L-144.399 -28.7603L-108.553 132.861L131.873 -245.309L-238.732 -454.058L-200.538 -281.859L-200.183 -280.255L-201.687 -279.594C-471.094 -161.291 -621.399 -48.5792 -695.521 53.7513C-769.526 155.92 -767.633 247.784 -732.411 324.974C-697.108 402.341 -628.234 465.134 -568.006 508.644C-537.916 530.382 -510.038 547.269 -489.685 558.719C-481.572 563.284 -474.656 566.984 -469.274 569.782C-567.568 478.228 -613.227 398.833 -622.25 330.164C-631.606 258.961 -601.523 199.745 -550.891 151.024C-500.3 102.344 -429.07 63.9998 -355.676 34.3521C-282.255 4.69348 -206.522 -16.3203 -146.807 -30.2748Z" stroke="white" stroke-width="4"/>
<path d="M-90.6392 408.161L-127.532 241.82L-371.684 625.851L4.6644 837.834L-34.4998 661.265C1043.59 187.849 220.41 -198.131 220.41 -198.131C642.126 183.915 147.984 352.404 -90.6392 408.161Z" stroke="white" stroke-width="4" stroke-miterlimit="10"/>
</g>
<defs>
<clipPath id="clip0_10046_970">
<rect width="526" height="713" fill="white"/>
</clipPath>
</defs>
</svg>
