<svg width="16" height="16" viewBox="0 0 16 16" fill="none" xmlns="http://www.w3.org/2000/svg">
<path d="M15.5 8C15.5 12.1421 12.1421 15.5 8 15.5C3.85786 15.5 0.5 12.1421 0.5 8C0.5 3.85786 3.85786 0.5 8 0.5C12.1421 0.5 15.5 3.85786 15.5 8ZM12.0607 7.06066C12.6464 6.47487 12.6464 5.52513 12.0607 4.93934C11.4749 4.35355 10.5251 4.35355 9.93934 4.93934L7 7.87868L6.06066 6.93934C5.47487 6.35355 4.52513 6.35355 3.93934 6.93934C3.35355 7.52513 3.35355 8.47487 3.93934 9.06066L5.93934 11.0607C6.52513 11.6464 7.47487 11.6464 8.06066 11.0607L12.0607 7.06066Z" fill="#0DAC44" stroke="#0DAC44"/>
</svg>
